<svg width="24" height="24" viewBox="0 0 24 24" fill="none" xmlns="http://www.w3.org/2000/svg">
<path d="M7.921 12.677C7.797 12.5903 7.70367 12.491 7.641 12.379C7.579 12.2677 7.548 12.1413 7.548 12C7.548 11.8587 7.579 11.7323 7.641 11.621C7.703 11.5097 7.79634 11.4103 7.921 11.323L13.764 7.59C13.834 7.55334 13.9053 7.52567 13.978 7.507C14.0507 7.48834 14.122 7.479 14.192 7.479C14.4073 7.479 14.596 7.55234 14.758 7.699C14.92 7.84567 15.0007 8.04167 15 8.287V15.713C15 15.9583 14.9193 16.1543 14.758 16.301C14.5967 16.4477 14.408 16.521 14.192 16.521C14.1213 16.521 14.05 16.5117 13.978 16.493C13.9053 16.475 13.8337 16.4473 13.763 16.41L7.921 12.677Z" fill="black"/>
</svg>
