<svg width="24" height="24" viewBox="0 0 24 24" fill="none" xmlns="http://www.w3.org/2000/svg">
<path d="M8.82 12L16.535 19.716C16.6817 19.8627 16.7543 20.0387 16.753 20.244C16.7517 20.4493 16.677 20.6257 16.529 20.773C16.3817 20.9203 16.2053 20.994 16 20.994C15.7947 20.994 15.6183 20.9203 15.471 20.773L7.83 13.136C7.668 12.9747 7.55 12.7947 7.476 12.596C7.40133 12.3973 7.364 12.1987 7.364 12C7.364 11.8013 7.40133 11.6027 7.476 11.404C7.55067 11.2053 7.66867 11.0253 7.83 10.864L15.47 3.21999C15.6173 3.07266 15.7947 2.99999 16.002 3.00199C16.2087 3.00399 16.3857 3.07866 16.533 3.22599C16.6803 3.37333 16.7543 3.54966 16.755 3.75499C16.7557 3.96033 16.6817 4.13633 16.533 4.28299L8.82 12Z" fill="black"/>
</svg>
