<svg width="24" height="24" viewBox="0 0 24 24" fill="none" xmlns="http://www.w3.org/2000/svg">
<path d="M4 22V11H2V5H7.2C7.11667 4.85 7.06267 4.69167 7.038 4.525C7.01333 4.35833 7.00067 4.18333 7 4C7 3.16667 7.29167 2.45833 7.875 1.875C8.45833 1.29167 9.16667 1 10 1C10.3833 1 10.7417 1.071 11.075 1.213C11.4083 1.355 11.7167 1.55067 12 1.8C12.2833 1.53333 12.5917 1.33333 12.925 1.2C13.2583 1.06667 13.6167 1 14 1C14.8333 1 15.5417 1.29167 16.125 1.875C16.7083 2.45833 17 3.16667 17 4C17 4.18333 16.9833 4.35433 16.95 4.513C16.9167 4.67167 16.8667 4.834 16.8 5H22V11H20V22H4ZM13.288 3.287C13.096 3.479 13 3.71667 13 4C13 4.28333 13.096 4.521 13.288 4.713C13.48 4.905 13.7173 5.00067 14 5C14.2827 4.99933 14.5203 4.90333 14.713 4.712C14.9057 4.52067 15.0013 4.28333 15 4C14.9987 3.71667 14.9027 3.47933 14.712 3.288C14.5213 3.09667 14.284 3.00067 14 3C13.716 2.99933 13.4787 3.09533 13.288 3.288M9 4C9 4.28333 9.096 4.521 9.288 4.713C9.48 4.905 9.71733 5.00067 10 5C10.2827 4.99933 10.5203 4.90333 10.713 4.712C10.9057 4.52067 11.0013 4.28333 11 4C10.9987 3.71667 10.9027 3.47933 10.712 3.288C10.5213 3.09667 10.284 3.00067 10 3C9.716 2.99933 9.47867 3.09533 9.288 3.288C9.09733 3.48067 9.00133 3.718 9 4ZM4 7V9H11V7H4ZM11 20V11H6V20H11ZM13 20H18V11H13V20ZM20 9V7H13V9H20Z" fill="black"/>
</svg>
