<svg width="24" height="24" viewBox="0 0 24 24" fill="none" xmlns="http://www.w3.org/2000/svg">
<path d="M19.485 20.154L13.223 13.892C12.723 14.318 12.148 14.6477 11.498 14.881C10.848 15.1144 10.1947 15.231 9.538 15.231C7.93933 15.231 6.58467 14.6757 5.474 13.565C4.36333 12.4537 3.808 11.0987 3.808 9.50004C3.808 7.90138 4.36333 6.54671 5.474 5.43604C6.58467 4.32538 7.93933 3.76971 9.538 3.76904C11.1367 3.76838 12.4917 4.32404 13.603 5.43604C14.7143 6.54804 15.2697 7.90271 15.269 9.50004C15.269 10.1947 15.146 10.867 14.9 11.517C14.654 12.167 14.3307 12.723 13.93 13.185L20.192 19.446L19.485 20.154ZM9.539 14.23C10.8657 14.23 11.9857 13.7734 12.899 12.86C13.8123 11.9467 14.269 10.8264 14.269 9.49904C14.269 8.17171 13.8123 7.05171 12.899 6.13904C11.9857 5.22638 10.8657 4.76971 9.539 4.76904C8.21233 4.76838 7.092 5.22504 6.178 6.13904C5.264 7.05304 4.80733 8.17304 4.808 9.49904C4.80867 10.825 5.26533 11.945 6.178 12.859C7.09067 13.773 8.21067 14.2297 9.538 14.229" fill="black"/>
</svg>
