<svg width="24" height="24" viewBox="0 0 24 24" fill="none" xmlns="http://www.w3.org/2000/svg">
<path d="M10.96 21C10.7273 21 10.5257 20.9237 10.355 20.771C10.1837 20.6183 10.0773 20.428 10.036 20.2L9.77299 18.108C9.45366 18.0113 9.10832 17.86 8.73699 17.654C8.36632 17.4473 8.05066 17.226 7.78999 16.99L5.87499 17.814C5.66366 17.9073 5.44899 17.9173 5.23099 17.844C5.01299 17.7707 4.84499 17.6323 4.72699 17.429L3.64799 15.57C3.52999 15.3667 3.49532 15.154 3.54399 14.932C3.59266 14.71 3.70866 14.528 3.89199 14.386L5.56399 13.136C5.53399 12.9547 5.50966 12.7683 5.49099 12.577C5.47099 12.385 5.46099 12.1987 5.46099 12.018C5.46099 11.85 5.47099 11.6733 5.49099 11.488C5.50966 11.3027 5.53399 11.094 5.56399 10.862L3.89199 9.612C3.70866 9.47 3.59599 9.285 3.55399 9.057C3.51199 8.829 3.54966 8.613 3.66699 8.409L4.72699 6.609C4.84499 6.41767 5.01299 6.28234 5.23099 6.203C5.44899 6.12367 5.66366 6.13067 5.87499 6.224L7.77099 7.028C8.06966 6.77934 8.39299 6.555 8.74099 6.355C9.08766 6.155 9.42532 6.00034 9.75399 5.891L10.037 3.799C10.0777 3.571 10.1837 3.38067 10.355 3.228C10.5263 3.07534 10.728 2.99934 10.96 3H13.04C13.2727 3 13.4743 3.07634 13.645 3.229C13.8163 3.38167 13.9227 3.572 13.964 3.8L14.227 5.912C14.6103 6.04667 14.949 6.201 15.243 6.375C15.537 6.549 15.84 6.767 16.152 7.029L18.144 6.225C18.356 6.13167 18.571 6.12467 18.789 6.204C19.007 6.28334 19.1747 6.41867 19.292 6.61L20.352 8.429C20.47 8.633 20.5047 8.84567 20.456 9.067C20.4073 9.28834 20.2913 9.47067 20.108 9.614L18.36 10.92C18.4147 11.1267 18.4453 11.3163 18.452 11.489C18.4587 11.6617 18.462 11.8317 18.462 11.999C18.462 12.1543 18.4553 12.318 18.442 12.49C18.4293 12.6627 18.4 12.8713 18.354 13.116L20.044 14.386C20.2273 14.528 20.3467 14.71 20.402 14.932C20.4573 15.154 20.426 15.3667 20.308 15.57L19.242 17.409C19.1247 17.613 18.9537 17.7513 18.729 17.824C18.5043 17.8973 18.2863 17.8873 18.075 17.794L16.152 16.97C15.8407 17.232 15.5273 17.4563 15.212 17.643C14.8967 17.8297 14.5683 17.978 14.227 18.088L13.963 20.199C13.9223 20.427 13.8163 20.6173 13.645 20.77C13.4737 20.9227 13.272 20.9993 13.04 21H10.96ZM11 20H12.956L13.325 17.292C13.829 17.1587 14.2823 16.9757 14.685 16.743C15.089 16.5103 15.4997 16.1917 15.917 15.787L18.412 16.85L19.406 15.15L17.217 13.506C17.3003 13.2213 17.3557 12.9593 17.383 12.72C17.4097 12.4813 17.423 12.2413 17.423 12C17.423 11.7467 17.4097 11.5067 17.383 11.28C17.3563 11.0533 17.301 10.8043 17.217 10.533L19.444 8.85L18.45 7.15L15.898 8.22C15.5953 7.88734 15.1977 7.57567 14.705 7.285C14.2117 6.995 13.745 6.80267 13.305 6.708L13 4H11.006L10.694 6.689C10.19 6.79634 9.72666 6.96967 9.30399 7.209C8.88199 7.44767 8.46199 7.776 8.04399 8.194L5.54999 7.15L4.55599 8.85L6.72499 10.47C6.64166 10.694 6.58332 10.9373 6.54999 11.2C6.51666 11.4627 6.49999 11.736 6.49999 12.02C6.49999 12.2733 6.51666 12.525 6.54999 12.775C6.58332 13.025 6.63532 13.2683 6.70599 13.505L4.55599 15.15L5.54999 16.85L8.02499 15.8C8.41766 16.196 8.82499 16.5137 9.24699 16.753C9.66966 16.9923 10.1457 17.1787 10.675 17.312L11 20ZM11.973 14.5C12.6703 14.5 13.2613 14.2577 13.746 13.773C14.2307 13.2883 14.473 12.6973 14.473 12C14.473 11.3027 14.2307 10.7117 13.746 10.227C13.2613 9.74234 12.6703 9.5 11.973 9.5C11.2717 9.5 10.6797 9.74234 10.197 10.227C9.71432 10.7117 9.47299 11.3027 9.47299 12C9.47299 12.6973 9.71432 13.2883 10.197 13.773C10.6797 14.2577 11.2717 14.5 11.973 14.5Z" fill="black"/>
</svg>
